HIERARCHY
ROOT Pelvis
{
	OFFSET 0.000000 0.000000 0.000000
	CHANNELS 6 Xposition Yposition Zposition Xrotation Yrotation Zrotation
	JOINT LeftUpLeg_virtual
	{
		OFFSET 0.000000 0.000000 0.000000
		CHANNELS 3 Xrotation Yrotation Zrotation
		JOINT LeftUpLeg
		{
			OFFSET 18.735201 -5.666702 -4.541200
			CHANNELS 3 Xrotation Yrotation Zrotation
			JOINT LeftLeg
			{
				OFFSET -0.021200 -31.938179 0.493100
				CHANNELS 3 Xrotation Yrotation Zrotation
				JOINT LeftFoot
				{
					OFFSET 0.021200 -31.938179 -4.336299
					CHANNELS 3 Xrotation Yrotation Zrotation
					JOINT LeftToeBase
					{
						OFFSET 0.943001 -26.722000 15.023500
						CHANNELS 3 Xrotation Yrotation Zrotation
						End Site
						{
							OFFSET 0 0 0
						}
					}
				}
			}
		}
	}
	JOINT RightUpLeg_virtual
	{
		OFFSET 0.000000 0.000000 0.000000
		CHANNELS 3 Xrotation Yrotation Zrotation
		JOINT RightUpLeg
		{
			OFFSET -18.735201 -5.666702 -4.541200
			CHANNELS 3 Xrotation Yrotation Zrotation
			JOINT RightLeg
			{
				OFFSET 0.018946 -31.938133 0.493100
				CHANNELS 3 Xrotation Yrotation Zrotation
				JOINT RightFoot
				{
					OFFSET -0.018946 -31.938126 -4.336299
					CHANNELS 3 Xrotation Yrotation Zrotation
					JOINT RightToeBase
					{
						OFFSET -0.943001 -26.722004 15.023500
						CHANNELS 3 Xrotation Yrotation Zrotation
						End Site
						{
							OFFSET 0 0 0
						}
					}
				}
			}
		}
	}
	JOINT Hips_virtual
	{
		OFFSET 0.000000 0.000000 0.000000
		CHANNELS 3 Xrotation Yrotation Zrotation
		JOINT Hips
		{
			OFFSET -0.000000 -0.000000 -0.000000
			CHANNELS 3 Xrotation Yrotation Zrotation
			JOINT Spine
			{
				OFFSET 0.000000 10.199997 -0.299500
				CHANNELS 3 Xrotation Yrotation Zrotation
				JOINT Spine1
				{
					OFFSET 0.000000 11.900002 -1.516600
					CHANNELS 3 Xrotation Yrotation Zrotation
					JOINT Spine2
					{
						OFFSET 0.000000 13.600006 -2.842500
						CHANNELS 3 Xrotation Yrotation Zrotation
						JOINT Neck_virtual
						{
							OFFSET 0.000000 0.000000 0.000000
							CHANNELS 3 Xrotation Yrotation Zrotation
							JOINT Neck
							{
								OFFSET 0.000000 9.624100 -2.890100
								CHANNELS 3 Xrotation Yrotation Zrotation
								JOINT Head
								{
									OFFSET 0.000000 14.068802 -1.351900
									CHANNELS 3 Xrotation Yrotation Zrotation
									End Site
									{
										OFFSET 0 0 0
									}
								}
							}
						}
						JOINT LeftShoulder_virtual
						{
							OFFSET 0.000000 0.000000 0.000000
							CHANNELS 3 Xrotation Yrotation Zrotation
							JOINT LeftShoulder
							{
								OFFSET 15.263000 10.923401 -0.547700
								CHANNELS 3 Xrotation Yrotation Zrotation
								JOINT LeftArm
								{
									OFFSET 25.438599 -2.830597 -13.032500
									CHANNELS 3 Xrotation Yrotation Zrotation
									JOINT LeftForeArm
									{
										OFFSET 29.960503 0.000000 0.000000
										CHANNELS 3 Xrotation Yrotation Zrotation
										JOINT LeftHand
										{
											OFFSET 27.849251 0.000000 0.000000
											CHANNELS 3 Xrotation Yrotation Zrotation
											End Site
											{
												OFFSET 0 0 0
											}
										}
									}
								}
							}
						}
						JOINT RightShoulder_virtual
						{
							OFFSET 0.000000 0.000000 0.000000
							CHANNELS 3 Xrotation Yrotation Zrotation
							JOINT RightShoulder
							{
								OFFSET -15.263000 10.923401 -0.547700
								CHANNELS 3 Xrotation Yrotation Zrotation
								JOINT RightArm
								{
									OFFSET -25.438599 -2.830597 -13.032500
									CHANNELS 3 Xrotation Yrotation Zrotation
									JOINT RightForeArm
									{
										OFFSET -29.960503 0.000000 0.000000
										CHANNELS 3 Xrotation Yrotation Zrotation
										JOINT RightHand
										{
											OFFSET -27.849251 0.000000 0.000000
											CHANNELS 3 Xrotation Yrotation Zrotation
											End Site
											{
												OFFSET 0 0 0
											}
										}
									}
								}
							}
						}
					}
				}
			}
		}
	}
}
MOTION
Frames: 13
Frame Time: 0.03333333
0.086278 87.972977 12.570101 0.000000 0.000000 0.000000 -5.641552 -26.349109 -2.062774 -51.953445 2.799835 16.773464 71.856213 1.168084 -1.307528 16.728603 0.606839 -6.118445 0.000000 0.000000 0.000000 14.718856 5.075758 1.674980 -8.999864 -5.438931 -11.600148 42.295359 -0.989447 -0.433320 -9.432033 -4.120446 10.023358 0.000000 0.000000 0.000000 6.703006 -11.743779 0.953469 28.613790 -8.766687 0.514683 11.637719 4.394978 -3.389922 3.711011 2.803697 -0.983334 0.000000 0.000000 0.000000 -4.361868 1.741556 1.142740 -3.794838 1.046850 0.442682 0.000000 0.000000 0.000000 -4.154696 0.867509 2.726613 -4.189618 -4.930694 4.829396 -52.989093 -17.027735 -40.450467 -26.238016 -75.033917 -14.971406 0.000000 0.000000 0.000000 -1.602674 2.041833 1.624784 -4.605755 14.304465 11.139204 -12.571939 31.022589 31.769983 18.125215 76.046138 -20.701719 0.000000 0.000000 0.000000 
0.008725 88.083801 14.139272 0.000000 0.000000 0.000000 -6.023927 -25.793509 -2.222465 -52.331649 2.896889 16.706687 71.266119 1.153495 -1.243433 16.265804 0.579699 -6.054498 0.000000 0.000000 0.000000 14.872301 5.154988 1.706826 -8.685163 -5.441151 -11.499639 42.736511 -1.232348 -0.293853 -9.080587 -4.398983 10.075769 0.000000 0.000000 0.000000 6.666613 -11.560812 0.935514 28.673216 -8.386759 0.387244 11.818620 4.585712 -3.513872 3.781175 2.943991 -1.003340 0.000000 0.000000 0.000000 -4.412342 1.693273 1.222100 -3.816890 1.015128 0.476966 0.000000 0.000000 0.000000 -4.103691 0.902981 2.766716 -4.157788 -4.767810 4.898632 -52.104006 -17.465856 -39.830955 -24.242546 -74.995272 -13.135279 0.000000 0.000000 0.000000 -1.663945 2.113385 1.621887 -4.673860 14.398764 11.167466 -12.555460 31.108260 31.342509 18.561541 76.109358 -21.276968 0.000000 0.000000 0.000000 
-0.138135 88.279533 17.100098 0.000000 0.000000 0.000000 -6.669244 -24.706270 -2.497010 -52.965494 3.099810 16.583021 70.080596 1.129631 -1.115864 15.327230 0.532642 -5.920250 0.000000 0.000000 0.000000 15.147432 5.341117 1.767391 -8.123514 -5.432717 -11.309432 43.638287 -1.671291 -0.027979 -8.367958 -4.902053 10.189432 0.000000 0.000000 0.000000 6.587409 -11.225336 0.913425 28.770208 -7.619978 0.184651 12.166698 4.946151 -3.746724 3.920984 3.203072 -1.045097 0.000000 0.000000 0.000000 -4.494890 1.598419 1.365128 -3.852682 0.952139 0.538937 0.000000 0.000000 0.000000 -3.992874 0.969162 2.832242 -4.093816 -4.453243 4.993878 -50.364913 -18.234894 -38.601279 -20.513645 -74.872957 -9.698047 0.000000 0.000000 0.000000 -1.763023 2.242076 1.616831 -4.790511 14.546744 11.226332 -12.459000 31.189495 30.567514 19.254964 76.138209 -22.200598 0.000000 0.000000 0.000000 
-0.342514 88.515312 21.151659 0.000000 0.000000 0.000000 -7.383452 -23.147569 -2.820990 -53.652693 3.419583 16.414222 68.306345 1.101506 -0.925145 13.904798 0.472525 -5.707086 0.000000 0.000000 0.000000 15.491885 5.676945 1.851757 -7.427023 -5.393623 -11.047564 45.030915 -2.225938 0.338050 -7.278392 -5.535145 10.372997 0.000000 0.000000 0.000000 6.457129 -10.789109 0.908440 28.861299 -6.464012 -0.021516 12.659972 5.436571 -4.061365 4.128192 3.542852 -1.109890 0.000000 0.000000 0.000000 -4.578673 1.460158 1.545950 -3.888926 0.859242 0.617778 0.000000 0.000000 0.000000 -3.810609 1.056642 2.898170 -3.998148 -4.009950 5.038238 -47.829492 -19.150998 -36.798375 -15.532499 -74.601300 -5.099893 0.000000 0.000000 0.000000 -1.861897 2.402602 1.610992 -4.923845 14.677858 11.321022 -12.176900 31.116286 29.581911 19.889361 75.983300 -23.079308 0.000000 0.000000 0.000000 
-0.595564 88.738083 25.952684 0.000000 0.000000 0.000000 -7.962226 -21.225583 -3.140399 -54.173546 3.860857 16.204334 65.986840 1.066891 -0.670943 12.020736 0.396674 -5.410305 0.000000 0.000000 0.000000 15.846874 6.200143 1.954765 -6.720618 -5.305068 -10.735048 46.938324 -2.804088 0.765170 -5.798804 -6.185851 10.621855 0.000000 0.000000 0.000000 6.272296 -10.310737 0.939408 28.887127 -4.940419 -0.186488 13.274141 6.002393 -4.423922 4.396723 3.916474 -1.195877 0.000000 0.000000 0.000000 -4.629851 1.282089 1.736658 -3.912330 0.739120 0.701917 0.000000 0.000000 0.000000 -3.550702 1.151406 2.936020 -3.873589 -3.473342 4.937677 -44.579596 -20.004109 -34.514421 -9.902211 -74.128453 0.092584 0.000000 0.000000 0.000000 -1.921040 2.564032 1.606051 -5.039704 14.707839 11.458452 -11.594724 30.726938 28.542184 20.141039 75.506888 -23.509735 0.000000 0.000000 0.000000 
-0.895149 88.897202 31.198929 0.000000 0.000000 0.000000 -8.243051 -19.093650 -3.432154 -54.343649 4.416625 15.945825 63.220204 1.013443 -0.353778 9.745860 0.289590 -5.034331 0.000000 0.000000 0.000000 16.155643 6.923278 2.071366 -6.119925 -5.156361 -10.394377 49.356111 -3.323924 1.203618 -3.931786 -6.748659 10.908464 0.000000 0.000000 0.000000 6.038871 -9.841348 1.014146 28.789053 -3.111638 -0.322813 13.983853 6.578949 -4.800162 4.714662 4.276086 -1.297071 0.000000 0.000000 0.000000 -4.621087 1.066436 1.914233 -3.913901 0.595686 0.781874 0.000000 0.000000 0.000000 -3.218215 1.234931 2.920796 -3.726672 -2.891153 4.600952 -40.727762 -20.611768 -31.918983 -4.211590 -73.443200 5.308930 0.000000 0.000000 0.000000 -1.910204 2.694629 1.603175 -5.108481 14.553994 11.642219 -10.620898 29.895352 27.584897 19.858357 74.631851 -23.282126 0.000000 0.000000 0.000000 
-1.243483 88.952057 36.669891 0.000000 0.000000 0.000000 -8.127497 -16.927613 -3.701863 -54.040283 5.067886 15.624187 60.159282 0.922717 0.022105 7.200282 0.128793 -4.594101 0.000000 0.000000 0.000000 16.363902 7.823319 2.195537 -5.725602 -4.947555 -10.051081 52.231997 -3.729885 1.598077 -1.708623 -7.144815 11.182151 0.000000 0.000000 0.000000 5.771950 -9.417151 1.126481 28.534720 -1.079653 -0.494753 14.758927 7.097311 -5.160568 5.063834 4.578448 -1.404665 0.000000 0.000000 0.000000 -4.538259 0.812198 2.063783 -3.891088 0.433435 0.851473 0.000000 0.000000 0.000000 -2.830264 1.284899 2.836048 -3.568186 -2.321718 3.959201 -36.431068 -20.863289 -29.259929 1.083652 -72.585069 10.091470 0.000000 0.000000 0.000000 -1.813259 2.765068 1.601951 -5.106816 14.145531 11.865335 -9.207776 28.560597 26.798580 19.140627 73.361757 -22.472074 0.000000 0.000000 0.000000 
-1.639488 88.875603 42.238586 0.000000 0.000000 0.000000 -7.577253 -14.892638 -3.966993 -53.203759 5.786946 15.227161 56.992126 0.779257 0.446759 4.535427 -0.103496 -4.111542 0.000000 0.000000 0.000000 16.416758 8.846344 2.318881 -5.628195 -4.687228 -9.735683 55.460460 -3.998031 1.896087 0.805246 -7.332053 11.380024 0.000000 0.000000 0.000000 5.490699 -9.061682 1.260102 28.137617 1.039500 -0.780883 15.560339 7.491312 -5.482457 5.421976 4.787828 -1.509643 0.000000 0.000000 0.000000 -4.383015 0.514566 2.177986 -3.847591 0.256698 0.907439 0.000000 0.000000 0.000000 -2.412587 1.277172 2.676283 -3.413015 -1.829964 2.982006 -31.901505 -20.745699 -26.831240 5.709794 -71.637059 14.153708 0.000000 0.000000 0.000000 -1.627763 2.750193 1.599730 -5.016638 13.428875 12.105568 -7.361183 26.731595 26.216173 18.240893 71.776559 -21.343060 0.000000 0.000000 0.000000 
-2.070942 88.654663 47.853924 0.000000 0.000000 0.000000 -6.598697 -13.114721 -4.239673 -51.825498 6.542153 14.752317 53.909993 0.579755 0.905402 1.904954 -0.409837 -3.608664 0.000000 0.000000 0.000000 16.258543 9.926777 2.431016 -5.912137 -4.386776 -9.481924 58.899057 -4.130333 2.057709 3.517434 -7.302204 11.445297 0.000000 0.000000 0.000000 5.212050 -8.795387 1.396698 27.655479 3.152113 -1.228982 16.341019 7.704990 -5.748912 5.766828 4.877152 -1.604989 0.000000 0.000000 0.000000 -4.171438 0.166383 2.254359 -3.791711 0.069348 0.948169 0.000000 0.000000 0.000000 -1.994376 1.188983 2.446872 -3.279434 -1.480126 1.686587 -27.399598 -20.343085 -24.909761 9.550785 -70.705818 17.371913 0.000000 0.000000 0.000000 -1.362616 2.630109 1.592131 -4.826270 12.369964 12.328013 -5.142951 24.470872 25.829416 17.402562 70.011645 -20.173534 0.000000 0.000000 0.000000 
-2.512217 88.287941 53.510818 0.000000 0.000000 0.000000 -5.228444 -11.668057 -4.518970 -49.935117 7.302212 14.209040 51.074509 0.337105 1.381579 -0.564046 -0.773922 -3.101514 0.000000 0.000000 0.000000 15.837860 11.012492 2.522810 -6.652655 -4.053960 -9.319908 62.402275 -4.141938 2.062352 6.326489 -7.069237 11.344569 0.000000 0.000000 0.000000 4.947212 -8.643728 1.523695 27.164221 5.207678 -1.829608 17.053111 7.698544 -5.946052 6.080668 4.828489 -1.686109 0.000000 0.000000 0.000000 -3.929950 -0.238943 2.292400 -3.734292 -0.124919 0.972533 0.000000 0.000000 0.000000 -1.603684 1.002491 2.162236 -3.187658 -1.326271 0.137814 -23.208177 -19.804072 -23.682861 12.585964 -69.892779 19.736902 0.000000 0.000000 0.000000 -1.036751 2.390880 1.574940 -4.535127 10.954239 12.494644 -2.670306 21.867250 25.617897 16.760212 68.227128 -19.144511 0.000000 0.000000 0.000000 
-2.929876 87.783897 59.221718 0.000000 0.000000 0.000000 -3.523225 -10.579479 -4.793220 -47.590784 8.039399 13.615010 48.594136 0.077345 1.860136 -2.790267 -1.164730 -2.598901 0.000000 0.000000 0.000000 15.115045 12.082868 2.591718 -7.906680 -3.688951 -9.266769 65.855325 -4.048897 1.909339 9.140788 -6.655010 11.075321 0.000000 0.000000 0.000000 4.701747 -8.636573 1.638166 26.723224 7.194992 -2.518162 17.657779 7.451175 -6.060694 6.353325 4.633794 -1.749602 0.000000 0.000000 0.000000 -3.690163 -0.704467 2.291909 -3.686879 -0.322029 0.979248 0.000000 0.000000 0.000000 -1.264005 0.707530 1.843085 -3.156832 -1.402819 -1.561315 -19.592082 -19.282107 -23.200390 14.830354 -69.263514 21.299105 0.000000 0.000000 0.000000 -0.678945 2.024810 1.546402 -4.159230 9.184964 12.575342 -0.110019 19.010310 25.576736 16.328602 66.577501 -18.317113 0.000000 0.000000 0.000000 
-3.292776 87.160225 64.996429 0.000000 0.000000 0.000000 -1.552239 -9.841609 -5.046696 -44.871361 8.731476 12.990489 46.514544 -0.168415 2.327866 -4.743872 -1.545113 -2.106529 0.000000 0.000000 0.000000 14.066132 13.150757 2.647204 -9.704832 -3.284735 -9.319242 69.186278 -3.862880 1.612519 11.886818 -6.080694 10.660464 0.000000 0.000000 0.000000 4.477739 -8.797100 1.745915 26.350950 9.121558 -3.198089 18.133123 6.960782 -6.079447 6.582752 4.295470 -1.791083 0.000000 0.000000 0.000000 -3.483404 -1.228078 2.252945 -3.660093 -0.517250 0.967030 0.000000 0.000000 0.000000 -0.991737 0.302722 1.513374 -3.200596 -1.719048 -3.286688 -16.756645 -18.873869 -23.375187 16.298187 -68.826109 22.124858 0.000000 0.000000 0.000000 -0.326660 1.530093 1.508328 -3.732502 7.079696 12.552937 2.336465 15.972558 25.728443 16.034135 65.189019 -17.657431 0.000000 0.000000 0.000000 
-3.580310 86.445969 70.833496 0.000000 0.000000 0.000000 0.610806 -9.426773 -5.264796 -41.866573 9.362260 12.353687 44.822109 -0.372726 2.771743 -6.439439 -1.880268 -1.633459 0.000000 0.000000 0.000000 12.680064 14.248289 2.714253 -12.049243 -2.831660 -9.451168 72.347727 -3.593626 1.192815 14.501460 -5.367187 10.134770 0.000000 0.000000 0.000000 4.274847 -9.127245 1.857249 26.022993 10.994328 -3.769549 18.476072 6.241476 -5.988778 6.773467 3.826100 -1.803345 0.000000 0.000000 0.000000 -3.335774 -1.802630 2.177072 -3.662028 -0.705472 0.935407 0.000000 0.000000 0.000000 -0.794490 -0.205157 1.197200 -3.322948 -2.260126 -4.913161 -14.817926 -18.585828 -24.029662 16.992387 -68.527425 22.270310 0.000000 0.000000 0.000000 -0.021700 0.910131 1.464894 -3.301332 4.666251 12.419126 4.457932 12.800778 26.113027 15.751878 64.146596 -17.072155 0.000000 0.000000 0.000000 
